<svg version="1.1" viewBox="0 0 4000 2666.7" xmlns="http://www.w3.org/2000/svg"><g><path transform="matrix(.13333 0 0 -.13333 0 2666.7)" d="m3e4 0h-3e4v2e4h3e4v-2e4" fill="#fff"/><path transform="matrix(.13333 0 0 -.13333 0 2666.7)" d="m27221 1753.5h-22996s-3119.7 3056.6-1134.9 6652.7c1984.8 3596.2 4650.5 1787.8 4521.5 5973.3-128.97 4185.7 6130.7 4545.2 8123.2 3331.6 1992.5-1213.7 1980.5-2675.3 6093.8-2191.7 4113.3 483.5 4899.2-3547.9 3829-5602.6-72.5-139.1-128.4-270.6-169.6-395.3-8.2-24.6-15.7-48.9-22.7-72.9-701.5-2412.4 4766.9-2733.9 1756.1-7695.1" fill="#ebf3fa"/><path transform="matrix(.13333 0 0 -.13333 0 2666.7)" d="m6047.8 1791.8h1338.7c71.74 60.8-49.64 199-176.47 208.3-55.09 4.2-124.74-7.4-204.33-24.2-18.42 244.7-123.63 1344.7-520.13 1300.5-445.82-49.5 0-484.4 126.03-741.9 93.36-190.7 191.85-464.2 236.85-593.3-36.2-7.9-73.67-15.6-111.95-22.6-59.09 181.4-278.95 791.7-558.55 756.2-328.28-41.7-196.33-286.4 36.35-431.6 170.7-106.8 380.33-258.6 479.93-332-84.39-13.7-172.47-23-261.82-20.9-229.32 5.4-341.25-62.2-384.65-98.5" fill="#a8d29f"/><path transform="matrix(.13333 0 0 -.13333 0 2666.7)" d="m26299 1791.8h-1055.9c-56.6 48 39.2 157 139.2 164.3 43.4 3.3 98.4-5.8 161.1-19.1 14.6 193 97.6 1060.6 410.3 1025.8 351.6-39.1 0-382.1-99.4-585.2-73.7-150.5-151.3-366.2-186.8-468 28.5-6.2 58.1-12.2 88.3-17.8 46.6 143.1 220 624.5 440.5 596.4 258.9-32.8 154.9-225.8-28.7-340.4-134.6-84.2-299.9-204-378.5-261.8 66.6-10.9 136-18.2 206.5-16.5 180.9 4.2 269.2-49.1 303.4-77.7" fill="#a8d29f"/><path transform="matrix(.13333 0 0 -.13333 0 2666.7)" d="m8739.4 8112.5s-224.89 2068.8-1797.3 2488.2c0 0-306.52 76.9-452.67-253-146.16-329.9 472.4-409.2 837.83-594.5 365.44-185.3 1184.8-880.4 1412.1-1640.7" fill="#dfebfd"/><path transform="matrix(.13333 0 0 -.13333 0 2666.7)" d="m8753.1 8325.7s-1116.6 1225.7-1950.3 1047-575.08-574.1-323.88-530.9c251.2 43.1 737.87 224.1 1199.9 22.1 462.05-202.1 1074.2-538.2 1074.2-538.2" fill="#dfebfd"/><path transform="matrix(.13333 0 0 -.13333 0 2666.7)" d="m22264 3102.8s267.9 2464.2 2140.8 2963.8c0 0 365.1 91.5 539.2-301.4 174.1-393-562.7-487.4-998-708.1s-1411.2-1048.7-1682-1954.3" fill="#dfebfd"/><path transform="matrix(.13333 0 0 -.13333 0 2666.7)" d="m22248 3356.8s1329.9 1460 2323 1247.1c993-212.9 685-683.9 385.8-632.5s-878.9 267-1429.3 26.4c-550.3-240.7-1279.5-641-1279.5-641" fill="#dfebfd"/><path transform="matrix(.13333 0 0 -.13333 0 2666.7)" d="m8519.2 7362.9s71.61-1135.1-140.42-1135.4c-212.04-0.3 11.39 1270.6 11.39 1270.6s-969.64 623.4-1379 634.3c0 0 505.5-1162.3 299.93-1110.3-205.58 51.9-787.77 1236.9-787.77 1236.9s-1032.9 326.5-1280-279c-247.13-605.4-11.81-952.5 139.95-1011 151.77-58.5 1158.3-169.8 1116-297-42.24-127.3-746.69-252.2-1110.6-87.9 0 0 290.1-1082.7 844.67-1098.3 554.57-15.5 766.2 302.8 1108.7 286.9 342.54-15.8 579.2-137.9 398.25-208.2-180.95-70.4-747.58 62-1050.4-137.1s-542.49-315.2-46.43-482.5c496.05-167.4 1417.6-215.1 1648.8 153.8 10.08 16.1 19.69 31.4 28.9 46.1-15.03-30.9-28.9-46.1-28.9-46.1 87.13-66.4 195.62-345 268.55-557.5 9.69-35.8 25.9-85.7 50.71-153.8 9.69-30.6 17.37-55.7 22.65-73.1 123.89-471.1-67.03-1234.5-67.03-1234.5l105.13-42.7c337.57 751.5-5.7 1445.6-5.7 1445.6-211.11 542.8-143.18 984.9-143.18 984.9s1046.6 427.1 681.81 1227.4c0 0-308.92 502-685.91 667.9" fill="#cddff9"/><path transform="matrix(.13333 0 0 -.13333 0 2666.7)" d="m24130 9169.1c-186.7 793.3-1523.1 592.4-1523.1 592.4s-948.1-1345.2-1211.6-1369.1c-263.4-24 585.8 1308.2 585.8 1308.2-506.6 66.2-1822.9-512.4-1822.9-512.4s27.9-1607.6-233.3-1566c-261.3 41.6 48 1424.7 48 1424.7-496.9-130.8-975.3-688.5-975.3-688.5-605.3-914.1 601.2-1643.4 601.2-1643.4s-2.3-557.3-368.2-1184.4c0 0-81.7-115.3-167.4-313.1l134.1-4.5c12.2 35.6 25.4 69.9 39.9 102.8 0 0.2 0.1 0.4 0.3 0.6 0.2 0.4 0.4 0.9 0.6 1.4 9.9 20.4 24.1 49.4 41.7 84.7 0.1 0 0.1 0.1 0.1 0.1 0 0.1 0.1 0.1 0.1 0.2 43.7 78.7 73.4 137 92.3 179.1 0.1 0.1 0.1 0.3 0.1 0.4 131.3 247.3 319.2 569 439.4 633.7 0 0-14.1 21.4-26.6 62.4 8.5-19.9 17.4-40.6 26.6-62.4 213-499 1358-619.5 2001.9-510.1 643.9 109.5 371.2 299 36.7 603-334.5 303.9-1058.5 251.2-1267.8 373s106.1 226 531.3 178.8c425.2-47.1 624-480 1310.5-568.7 686.4-88.8 1254.7 1187.3 1254.7 1187.3-480.5-131.4-1324.3 159.4-1351.5 324.2-27.3 164.9 1234.6 106 1433.1 148.5 198.4 42.5 555.9 423.9 369.3 1217.1" fill="#dfebfd"/><path transform="matrix(.13333 0 0 -.13333 0 2666.7)" d="m18430 12778s731.1 266.8 830.7-30.7c99.7-297.4-830.7 30.7-830.7 30.7s14.4-45.2 0 0" fill="#a0d694"/><path transform="matrix(.13333 0 0 -.13333 0 2666.7)" d="m19010 12343c-109.9-250.7-580.6 434.6-580.6 434.6s690.4-183.9 580.6-434.6" fill="#a0d694"/><path transform="matrix(.13333 0 0 -.13333 0 2666.7)" d="m16374 14343s-97.6 864.1 251.7 894.2c349.3 30-251.7-894.2-251.7-894.2s52.9 3.7 0 0" fill="#a8d29f"/><path transform="matrix(.13333 0 0 -.13333 0 2666.7)" d="m16999 14858c243.4-185.2-624.7-516.3-624.7-516.3s381.3 701.5 624.7 516.3" fill="#a8d29f"/><path transform="matrix(.13333 0 0 -.13333 0 2666.7)" d="m12187 15315s-719.6 666.1-443.4 948.9c276.1 282.9 443.4-948.9 443.4-948.9s42.5 42.2 0 0" fill="#a0d694"/><path transform="matrix(.13333 0 0 -.13333 0 2666.7)" d="m12341 16215c344.2 21.1-153.3-900.8-153.3-900.8s-191 879.7 153.3 900.8" fill="#a0d694"/><path transform="matrix(.13333 0 0 -.13333 0 2666.7)" d="m23076 1791.7-13036-43.7c-6.6 5.3-11.5 10.2-14.7 14.6-0.7 1-1.4 2.2-1.9 3.1-18.8 34.3-106.98 100.9-238.86 195.5v0.1c-268.62 192.9-718.56 502.6-1129.8 891.9-23.21 21.9-46.19 44-68.97 66.5-20.39 19.9-40.68 40.2-60.65 60.6-803.93 814.5-1357.6 1934.8 116.13 3063.4 2426.6 1858.6-3199.3 1991.7 1371.9 7136.9 35.2 39.6 7350.1 131.5 7447.1 26.1 1606.9-1747.1 1217.3-3953 1385.2-4998.5 474.9-2956.2 5655.3-1231 4230.7-6416.5" fill="#6385db"/><path transform="matrix(.13333 0 0 -.13333 0 2666.7)" d="m21248 1748h-13368c231.53 645 1011 2210.3 1923.2 2745 1408.3 825.6 4687.1 1166.6 7316.9 777 3059.5-453.2 4063.1-2801.2 4127.9-3522" fill="#ef873a"/><path transform="matrix(.13333 0 0 -.13333 0 2666.7)" d="m13799 3771.2c-1501-23.1-1581.3 504.4-1647.4 1069.5-27.4 234-45.2 638.2-64.1 1123.1-7.9 203.1-16.1 420.3-25.2 645-17.4 433.2-50.8 878.5-80.7 1225.4-32.9 379.3-61.8 641-61.8 641l3035.4 721.6 180.5 42.7c81.6-2376.2 795.3-3436.7 872.9-3839.8 163.2-848-1224.2-1613.3-2209.6-1628.5" fill="#ffb27d"/><path transform="matrix(.13333 0 0 -.13333 0 2666.7)" d="m14952 8118.1c-336.2-875.1-1172.1-2031.5-2864.9-2154.3-7.9 203.1-16.1 420.3-25.2 645-17.4 433.2-50.8 878.5-80.7 1225.4l2970.8 283.9" fill="#f4a269"/><path transform="matrix(.13333 0 0 -.13333 0 2666.7)" d="m11262 6811.9s4035.2-374 4229.5 2142.6c194.2 2516.5 845.8 4163.1-1722.4 4508.3-2568.2 345.1-3143.4-576.4-3412.6-1400.6-269.1-824.2-139.2-5088.1 905.5-5250.3" fill="#ffb27d"/><path transform="matrix(.13333 0 0 -.13333 0 2666.7)" d="m16442 9488.6c-399.1-363.1-554.6-913.3-971.1-716.6 0 0 0.3 1.9 1 5.6 0.2 1.9 0.6 4.5 1.1 7.4 0.4 2.5 0.8 5.3 1.3 8.4 0.3 2.3 0.7 4.7 1 7.3 12.2 80.1 45.3 318 55.6 589.8v0.6c2.8 75.7 3.9 153.8 2.3 231.8-9.7 467-116 931.4-519.8 822.9-86.3-23.2-169.6-38.8-250.3-47.3-1270.1-134.3-1847.5 1474.2-2420.2 2256.9-184.3 252-368.2 418.4-574.6 413.4-224-5.4-452.4-116.1-662.3-303.2-456.2-406.7-824.6-1175.2-869.2-2014 0-0.7-0.1-1.5-0.1-2.1v-0.1c-37-667.2-560.47 959.6 137.4 2143.7 149.1 252.9 6581.1 232.5 6706.1-69.7 16.1-38.7 31.6-78.4 46.6-118.8 665-1794.2 143.2-2463-684.8-3216" fill="#6385db"/><path transform="matrix(.13333 0 0 -.13333 0 2666.7)" d="m17468 13172c0-16.4-4.7-32.7-14.1-48.7-6.2-11-14.9-22.1-25.4-33-0.7-0.6-1.3-1.4-2.1-2-40.1-40-108.8-78.8-202.6-115.6-41-16.1-86.9-31.8-137.6-47.3-3.5-1-7.1-2.1-10.8-3.2-22.1-6.7-45.1-13.3-68.9-19.9-5.4-1.5-10.8-2.9-16.3-4.4-37.8-9.9-77.5-19.7-119.2-29.4-67.1-15.6-139.2-30.6-216-45-22.6-4.2-45.5-8.4-68.8-12.6-8.4-1.4-16.8-2.9-25.3-4.4-51.5-9-104.7-17.6-159.8-26-58.2-8.9-118.6-17.5-180.7-25.8h-0.2c-44.2-5.9-89.3-11.8-135.5-17.3-20.4-2.5-41-4.9-61.8-7.4-23.6-2.7-47.3-5.4-71.3-8-26-2.9-52.2-5.7-78.8-8.4-117.6-12.4-240.3-23.9-367.4-34.1-8.7-0.8-17.3-1.4-26-2.1-0.5-0.1-0.8-0.1-1.2-0.1-17.2-1.4-34.4-2.7-51.7-4-89.9-6.9-181.9-13.3-275.8-19-1.9-0.1-3.9-0.2-5.8-0.3-25.3-1.5-50.6-3-76.1-4.4-88.5-5.1-178.6-9.7-270.1-13.8-15.7-0.7-31.4-1.3-47.2-2-34.3-1.5-68.8-2.8-103.6-4.1-55.3-2.1-111.1-4-167.3-5.7-16.6-0.5-33.3-1-50.1-1.4-16.5-0.5-33.1-1-49.6-1.3-89.7-2.4-180.5-4.3-272.2-5.6-121.1-1.7-243.8-2.7-368-2.7-75.9 0-151.2 0.3-225.9 1.1-22.9 0.2-45.8 0.4-68.5 0.7-29.3 0.4-58.4 0.8-87.4 1.2-16 0.2-32 0.4-47.9 0.8-25.3 0.4-50.6 0.8-75.7 1.4-169.9 3.4-336.1 8.5-497.9 15.3-145 6-286.4 13.5-423.7 22-34.2 2.2-68.2 4.3-102 6.7-17.1 1.1-34.3 2.3-51.3 3.5-28 1.9-55.8 4-83.4 6-42.3 3.1-84.1 6.5-125.5 9.8-26.2 2.2-52.1 4.3-77.9 6.6-101.7 8.9-200.3 18.4-295.6 28.6-14.9 1.5-29.7 3.1-44.4 4.8-124 13.7-241.9 28.5-353.5 44.2-116.6 16.6-226.1 34.2-327.8 52.9-34.2 6.3-67.6 12.7-99.9 19.2-30.1 6-59.4 12.2-87.8 18.3-54.9 12.1-106.7 24.4-155.3 37.1-10.2 2.7-20.5 5.4-30.4 8.1-90.7 24.5-169.3 50-235 76.7-1 0.4-2.2 1-3.4 1.4-5.7 2.3-11.5 4.6-17 7-0.6 0.3-1.3 0.7-1.9 0.9-135 57.8-208.4 120-208.4 184.7 0 3 0.1 5.8 0.5 8.7 2.5 25.4 16.5 50.5 41.2 75 15.1 15.2 34.4 30.1 57.5 44.9 71.6 45.6 180.5 89.1 321.7 129.7 54.7 15.7 114.3 31 178.4 45.8 138.2 31.9 297.7 61.6 475.2 88.6 45.5 6.9 92.3 13.7 140.2 20.3 232.1 31.7 491 59.1 771.2 81.3 27.5 2.2 55.2 4.4 83 6.5 3.9 0.3 7.7 0.6 11.6 0.9 22.2 1.5 44.6 3.1 67.1 4.7 23.1 1.6 46.4 3.3 69.8 4.9 108.7 7.1 220.2 13.6 334.1 19.3 83.5 4.1 168.3 7.9 254.3 11.1h0.1c208.5 8 424.1 13.4 644.9 15.8 16.1 0.2 32.2 0.3 48.4 0.4 75.5 0.8 151.7 1.1 228.3 1.1 16.8 0 33.6 0 50.4-0.1 123.6-0.2 245.8-1.4 366.3-3.5 255.5-4.2 503.2-12.3 740.6-23.8 33.9-1.8 67.5-3.5 101-5.2 15.7-0.9 31.3-1.7 46.9-2.6 37.7-2.2 75-4.3 112.2-6.7 72.9-4.4 144.7-9.3 215.2-14.4 123.5-9.1 243.2-19.2 358.7-30.2 99.1-9.4 194.8-19.4 287.2-30.2 37.3-4.3 74.1-8.7 110.4-13.3 29.9-3.7 59.4-7.5 88.5-11.4 145.3-19.4 280.3-40.4 403.7-62.9 40.9-7.5 80.5-15.1 118.9-22.9 97.6-19.8 186.8-40.6 266.5-62.4 29.4-8 57.5-16.1 84.2-24.3 15.5-4.7 30.5-9.5 45-14.3 55.4-18.4 104.3-37.1 146.5-56.3 47.4-21.7 86.1-44 115.8-66.7 3.6-2.9 7.2-5.8 10.7-8.6 25.1-21 42.5-42.6 51.4-64.4 4.8-11.6 7.2-23.1 7.2-34.8" fill="#23569e"/><path transform="matrix(.13333 0 0 -.13333 0 2666.7)" d="m11533 12721c-124 13.7-241.9 28.5-353.5 44.2-116.6 16.6-226.1 34.2-327.8 52.9-34.2 6.3-67.6 12.7-99.9 19.2-30.1 6-59.4 12.2-87.8 18.3-0.1 0-0.1 0.2-0.1 0.2-133.8 208.2-219 402-230.4 574-17.2 260.7 65.8 505.1 65.8 505.1 356.7-80.8 549.8-238.9 706-434.7 310.5-388.9 327.7-779.2 327.7-779.2" fill="#1e3d70"/><path transform="matrix(.13333 0 0 -.13333 0 2666.7)" d="m14696 10282s239.1 546.1 729 419c490-127.1 382.3-575.9 227.5-866.9-154.9-291.1-353.9-643.9-804.3-588.7-450.5 55.2-152.2 1036.6-152.2 1036.6" fill="#ffb27d"/><path transform="matrix(.13333 0 0 -.13333 0 2666.7)" d="m17766 13204c-77.4-11.1-172.7-101.1-308-166-67.4-32.3-139.9-48.9-234.9-65.3-41-16.1-86.9-31.8-137.6-47.3-3.5-1-7.1-2.1-10.8-3.2 73.4 108.8 181.7 244.9 323.3 357.6 168.2 133.8 383.3 234.6 642.7 217.5 0 0 136-10.9 150.2-166.1 14.1-155.1-249.8-102-424.9-127.2" fill="#82b378"/><path transform="matrix(.13333 0 0 -.13333 0 2666.7)" d="m11332 12745c-50.2 243.3-103.3 471.2-156.8 681.9-11 42.9-21.9 85.1-32.8 126.7-1.6 6.1-3.2 12.3-4.8 18.3-81.3 308-161.9 575.2-233.5 794.2-100.6 308.6-182.8 522.4-222.8 622-9 22.6-15.9 39.2-20.3 49.9-2.3 5.4-3.9 9.1-4.8 11.4-0.5 1.1-0.8 1.8-0.9 2.2l-6.7-2.9-10.1-4.4-18.5-7.9-5-2.2-3.8-1.6c0.3-0.8 1.3-2.9 2.9-6.7 1.8-4.3 4.5-10.7 7.9-19.1 3.4-8 7.4-17.9 12.1-29.6 39.4-97.8 126.1-321.7 232.3-649.4 68.9-212.7 146-469 223.8-763 37.4-141.8 75.1-292.3 112-450.9v-0.1c1.2-5 2.3-9.9 3.5-14.9 25.9-111.8 51.4-227.7 76.4-347.4l49.9-6.5" fill="#a8d29f"/><path transform="matrix(.13333 0 0 -.13333 0 2666.7)" d="m10101 15280c92.8-105 526.9-274 556.9-247.5 30 26.4-83.8 478.2-176.5 583.3-92.7 105-253 115-358 22.3-105.1-92.7-115.1-253-22.4-358.1" fill="#f77d48"/><path transform="matrix(.13333 0 0 -.13333 0 2666.7)" d="m10766 15647c-83.7-112.3-159.8-572-127.7-595.9 32-23.9 450.8 180.4 534.5 292.7s60.5 271.3-51.8 355c-112.4 83.7-271.3 60.5-355-51.8" fill="#f77d48"/><path transform="matrix(.13333 0 0 -.13333 0 2666.7)" d="m11266 15158c-135.2 36.8-590.8-60.5-601.3-99.1s332.7-353.6 467.9-390.4c135.2-36.9 274.6 42.9 311.4 178 36.9 135.2-42.8 274.6-178 311.5" fill="#f77d48"/><path transform="matrix(.13333 0 0 -.13333 0 2666.7)" d="m10958 14549c-13.5 139.5-266 531-305.8 527.1-39.8-3.8-212.7-436.4-199.2-575.9 13.5-139.4 137.4-241.6 276.9-228.1 139.4 13.5 241.6 137.5 228.1 276.9" fill="#f77d48"/><path transform="matrix(.13333 0 0 -.13333 0 2666.7)" d="m10267 14579c124.1 65.1 391.3 446.8 372.7 482.2s-484.5 32.1-608.5-33c-124.07-65.1-171.83-218.5-106.71-342.5s218.51-171.8 342.51-106.7" fill="#f77d48"/><path transform="matrix(.13333 0 0 -.13333 0 2666.7)" d="m10557 15074c7.2 45.6 50.1 76.6 95.6 69.4 45.6-7.3 76.6-50.1 69.4-95.7-7.3-45.5-50.1-76.6-95.7-69.3-45.5 7.2-76.6 50.1-69.3 95.6" fill="#fff"/><path transform="matrix(.13333 0 0 -.13333 0 2666.7)" d="m11369 14424c-137.8-169.6-286.6-880.7-238.2-920.1 48.4-39.3 714.3 251.3 852.1 420.9 137.9 169.5 112.2 418.7-57.3 556.5s-418.7 112.2-556.6-57.3" fill="#a8d29f"/><path transform="matrix(.13333 0 0 -.13333 0 2666.7)" d="m10765 13629c143.1-69.8 459.7-494.4 439.7-535.2-19.9-40.9-549.3-53-692.5 16.8-143.1 69.8-202.6 242.4-132.8 385.6 69.8 143.1 242.4 202.6 385.6 132.8" fill="#a8d29f"/><path transform="matrix(.13333 0 0 -.13333 0 2666.7)" d="m10479 12901c-90.7 24.5-169.3 50-235 76.7-1 0.4-2.2 1-3.4 1.4-5.6 2.4-11.2 4.7-17 7-0.6 0.3-1.3 0.7-1.9 0.9-64.9 26.5-139.4 50.3-224.49 68.2-431.37 91-952.75-644-1198-391.5-245.2 252.7 163.83 586.5 816.88 659.4 168.26 18.7 314.49-11.8 438.87-67.7 194.6-87.3 335.8-236.5 424-354.4" fill="#a8d29f"/><path transform="matrix(.13333 0 0 -.13333 0 2666.7)" d="m12212 12662c-17.1 1.1-34.3 2.3-51.3 3.5-28 1.9-55.8 4-83.4 6-42.3 3.1-84.1 6.5-125.5 9.8-26.2 2.2-52.1 4.3-77.9 6.6-101.7 8.9-200.3 18.4-295.6 28.6 1.7 89.7 32.5 617.2 504.1 956.1 122.7 88.2 275.3 163.5 465.1 215.1 0 0 15.2-69.7 17.5-185.3 4.8-228.5-40.7-636.3-353-1040.4" fill="#1e3d70"/><path transform="matrix(.13333 0 0 -.13333 0 2666.7)" d="m16023 12730c-23.6-2.7-47.3-5.4-71.3-8-26-2.9-52.2-5.7-78.8-8.4-117.6-12.4-240.3-23.9-367.4-34.1-8.7-0.8-17.3-1.4-26-2.1-0.5-0.1-0.8-0.1-1.2-0.1-17.2-1.4-34.4-2.7-51.7-4-91.8-7-185.7-13.5-281.6-19.3-25.3-1.5-50.6-3-76.1-4.4-13.5 197.7 2.6 617.2 304.5 1025.1 117.8 159.2 279.3 316.8 499.5 458.6 0 0 94-187.3 146.4-519 36.4-230.1 52.7-529.7 3.7-884.3" fill="#1e3d70"/><path transform="matrix(.13333 0 0 -.13333 0 2666.7)" d="m15479 15006c-0.3-0.6-1.2-2.8-2.7-6.4-1.7-4.1-4.3-10.1-7.5-18.1-3.3-7.7-7.1-17.3-11.7-28.5-37.9-93.8-121.1-308.8-223.1-623.5-58.2-179.9-122.7-392.5-188.2-633.6-19.5-71.9-39.3-146.5-58.9-223.4-12.6-49.8-25.4-100.5-38-152.3-51.7-212.1-102.6-440.9-150.3-684.3-15.7-0.7-31.4-1.3-47.2-2 50.8 260.7 105.4 504.7 160.8 729.6 8.5 34.6 17.2 69 25.7 102.6 20.4 80.1 40.7 157.6 61 232.4 69.4 256 137.7 480.1 198.8 667.8 96.7 296.4 175.7 501.7 214 597.2 8.7 21.7 15.4 37.7 19.5 47.9 2.3 5.2 3.8 8.7 4.8 10.9 0.3 1 0.6 1.6 0.7 1.9l6.2-2.7 10.1-4.3 17.8-7.6 4.8-2.1 3.4-1.5" fill="#a8d29f"/><path transform="matrix(.13333 0 0 -.13333 0 2666.7)" d="m15969 15244c-89.1-100.8-505.9-263.1-534.7-237.7s80.4 459.2 169.4 560.1c89.1 100.8 243 110.4 343.8 21.4 100.9-89 110.5-242.9 21.5-343.8" fill="#f77d48"/><path transform="matrix(.13333 0 0 -.13333 0 2666.7)" d="m15330 15595c80.4-107.9 153.4-549.2 122.7-572.1-30.8-23-432.9 173.1-513.3 281-80.3 107.9-58.1 260.5 49.8 340.8 107.9 80.4 260.5 58.2 340.8-49.7" fill="#f77d48"/><path transform="matrix(.13333 0 0 -.13333 0 2666.7)" d="m14850 15126c129.8 35.3 567.3-58.1 577.4-95.2 10.1-37-319.5-339.5-449.3-374.8-129.8-35.4-263.7 41.1-299 170.9-35.4 129.8 41.1 263.7 170.9 299.1" fill="#f77d48"/><path transform="matrix(.13333 0 0 -.13333 0 2666.7)" d="m15146 14541c12.9 133.9 255.4 509.8 293.6 506.1s204.2-419.1 191.3-553c-13-133.9-132-231.9-265.9-219-133.9 13-232 132-219 265.9" fill="#f77d48"/><path transform="matrix(.13333 0 0 -.13333 0 2666.7)" d="m15809 14570c-119.1 62.5-375.6 428.9-357.8 462.9s465.2 30.9 584.3-31.6 164.9-209.8 102.4-328.9-209.8-165-328.9-102.4" fill="#f77d48"/><path transform="matrix(.13333 0 0 -.13333 0 2666.7)" d="m15531 15045c-7 43.7-48.1 73.5-91.8 66.5-43.8-6.9-73.6-48-66.6-91.8 7-43.7 48.1-73.6 91.8-66.6 43.8 7 73.6 48.1 66.6 91.9" fill="#fff"/><path transform="matrix(.13333 0 0 -.13333 0 2666.7)" d="m14898 14151c72.5-89.1 150.7-463 125.3-483.7-25.5-20.7-375.6 132.1-448.1 221.3-72.4 89.1-58.9 220.1 30.2 292.6 89.1 72.4 220.1 58.9 292.6-30.2" fill="#a8d29f"/><path transform="matrix(.13333 0 0 -.13333 0 2666.7)" d="m14651 13756c105.2-107.8 251.6-586.8 220.9-616.8-30.8-30.1-506.1 128-611.3 235.8-105.3 107.8-103.2 280.5 4.7 385.7 107.8 105.2 280.5 103.1 385.7-4.7" fill="#a8d29f"/><path transform="matrix(.13333 0 0 -.13333 0 2666.7)" d="m15330 14040c-100.7-49.1-323.5-348-309.5-376.7 14-28.8 386.6-37.3 487.4 11.8 100.7 49.2 142.6 170.7 93.5 271.4-49.2 100.7-170.6 142.6-271.4 93.5" fill="#a8d29f"/><path transform="matrix(.13333 0 0 -.13333 0 2666.7)" d="m17091 13417c-5.4-132.4-32.6-303.3-101.2-519.2-37.8-9.9-77.5-19.7-119.2-29.4-67.1-15.6-139.2-30.6-216-45-22.6-4.2-45.5-8.4-68.8-12.6-8.4-1.4-16.8-2.9-25.3-4.4-51.5-9-104.7-17.6-159.8-26-16.2 122.7-32.1 462 220.7 746.2 92.2 103.6 220.2 199.9 396.9 275.6 0 0 83.8-108.8 72.7-385.2" fill="#1e3d70"/><path transform="matrix(.13333 0 0 -.13333 0 2666.7)" d="m17701 13782c-107.3-77.5-265.7-234.8-417.9-435.7-100.3-132.5-198-283.9-276.4-444.2-42.5-11.5-87.8-22.7-135.5-33.8 23.1 170 64.2 370.1 136.2 572.9 141.3 397.2 401.6 804.5 880.4 1016.9 0 0 219.1 93.2 366.7-135 147.5-228.4-303.5-360.2-553.5-541.1" fill="#82b378"/><path transform="matrix(.13333 0 0 -.13333 0 2666.7)" d="m17259 11452c-0.3-4.6-0.6-9.1-0.9-13.6-0.6-6.5-1.2-13.3-1.9-20.4v-0.1c-8.6-91.4-26.7-217.7-47.4-362.2-6.3-44.8-13-91.3-19.7-139.4-1.4-9.6-2.7-19.1-4.1-28.8v-0.2c-18.2-131.5-37.1-273.8-53.3-421.4-1.5-13.7-3-27.4-4.4-41.1v-0.1c-10-93-18.7-187.8-25.5-283.2-0.7-8.3-1.2-16.6-1.7-24.9v-0.1c-9.5-138.4-14.8-277.4-13.6-413.1 0-8.3 0.1-16.6 0.2-24.9 1.4-100.9 6.4-199.8 16.3-294.8 1.7-16.9 3.5-33.7 5.6-50.2 0-0.1 0-0.2 0.1-0.3 7.8-65 18-128.2 31-188.6 4.6-22.2 9.7-44.1 15.2-65.7l-16.6-4.2c-5.3 20.8-10.3 42-14.8 63.4 0.1 0.1 0 0.1 0 0.1-12.1 56.2-21.8 114.5-29.6 174.6 0 0.1 0 0.3-0.1 0.5-2.9 22.9-5.6 46.1-8 69.5v0.3c-9.1 88.3-14.1 179.8-16 273.1 0.1 0.1 0.1 0.1 0 0.2-0.2 15.3-0.4 30.6-0.5 46.1-1.2 138.9 4.3 281.3 14.1 422.9v0.1c0.2 4 0.6 8 0.9 12 7.9 112.2 18.6 223.6 30.5 332.2v0.1c0.1 1.6 0.4 3.3 0.6 4.9 16.6 150.3 35.9 294.9 54.5 428.1 0.8 6.2 1.7 12.2 2.5 18.1 6.7 47.4 13.2 93.2 19.5 137.2 22.2 155.5 41.3 289.7 49 381.7l0.3 3.9c0.3 4.5 0.7 9.1 0.9 13.8 6.3 121.1-20.1 299.3-80.9 490.3v0.2c-1.6 5-3.3 10.1-4.9 15.2-47.2 144.2-113.8 295-200.5 433.6-4.7 7.4-9.3 14.8-14.1 22.1-39.5 61-83 119.4-130.5 173.5-65.1 74.2-133.9 136.2-205.9 185.6-5.4 3.8-10.8 7.3-16.2 10.9-9.3 6.2-18.7 12.1-28.2 17.8-66.5 40.3-135.4 70.3-206.9 89.8 0 0-0.1-0.1-0.2 0-54.8 14.9-111 23.7-168.5 26.4-9.9 0.5-19.8 0.8-29.5 1-9 0.2-18 0.3-26.8 0.3-3.3 0-6.5 0-9.8-0.1h-0.1c-295.5-2.2-489.3-117-613.7-244.4-8.7-0.8-17.3-1.4-26-2.1 128.4 138.1 334.3 265.6 655.9 263.7 0.1 0.1 0.1 0 0.1 0 16.5 0 33.5-0.4 50.6-1.2 76.8-3.6 151.1-17.8 223-42.9 61-21 120.1-49.7 177.2-86.1 4.8-2.8 9.4-5.9 14.1-8.9 0.2-0.1 0.3-0.2 0.4-0.4 0.4-0.2 0.8-0.5 1.2-0.7 0.1 0 0.1 0 0.1-0.1 25.3-16.8 50.4-35.2 75-55.1l0.3-0.3c50.6-40.9 99.6-88.3 146.8-141.9 47.8-54.4 91.5-113.1 131.2-174.4 0.3-0.4 0.6-0.9 0.9-1.3 0 0 0-0.1 0.1-0.1 94.9-146.7 167-308.4 217-462.5 2.9-9.2 5.9-18.2 8.7-27.3 59-190.1 84.1-366.5 77-486.1" fill="#a0d694"/><path transform="matrix(.13333 0 0 -.13333 0 2666.7)" d="m17118 10475s-291.7-28.6-416-283.1c0 0 230.2-31.5 416 283.1" fill="#a0d694"/><path transform="matrix(.13333 0 0 -.13333 0 2666.7)" d="m17088 10138s-281.5-81.7-357-354.7c0 0 232 11.3 357 354.7" fill="#a0d694"/><path transform="matrix(.13333 0 0 -.13333 0 2666.7)" d="m17076 9707s-211.9-124.8-216.6-362.5c0 0 186.3 57.4 216.6 362.5" fill="#a0d694"/><path transform="matrix(.13333 0 0 -.13333 0 2666.7)" d="m17084 9389.8s-170.6-177.1-111.3-407.3c0 0 164 105.3 111.3 407.3" fill="#a0d694"/><path transform="matrix(.13333 0 0 -.13333 0 2666.7)" d="m17128 9159.2s-62.1-237.9 102.3-409.7c0 0 91.4 172.2-102.3 409.7" fill="#a0d694"/><path transform="matrix(.13333 0 0 -.13333 0 2666.7)" d="m17086 9389.8s65.4-237 293.6-303.5c0 0-6.9 194.8-293.6 303.5" fill="#a0d694"/><path transform="matrix(.13333 0 0 -.13333 0 2666.7)" d="m17076 9707s65.4-237.1 293.6-303.5c0 0-7 194.8-293.6 303.5" fill="#a0d694"/><path transform="matrix(.13333 0 0 -.13333 0 2666.7)" d="m17095 10145s25.7-244.6 240-347.5c0 0 25 193.3-240 347.5" fill="#a0d694"/><path transform="matrix(.13333 0 0 -.13333 0 2666.7)" d="m17118 10474s29.9-284 278.7-403.4c0 0 29.1 224.5-278.7 403.4" fill="#a0d694"/><path transform="matrix(.13333 0 0 -.13333 0 2666.7)" d="m17185 10920s-292.2 22.2-458.7-207c0 0 221.3-70.7 458.7 207" fill="#a0d694"/><path transform="matrix(.13333 0 0 -.13333 0 2666.7)" d="m17185 10919s-19.7-284.9 204.7-445.5c0 0 67.4 216.1-204.7 445.5" fill="#a0d694"/><path transform="matrix(.13333 0 0 -.13333 0 2666.7)" d="m17251 11458s-292.6-16.8-427.3-266c0 0 228.8-40.8 427.3 266" fill="#a0d694"/><path transform="matrix(.13333 0 0 -.13333 0 2666.7)" d="m17251 11457s18.3-285 262.1-414.4c0 0 38.1 223.1-262.1 414.4" fill="#a0d694"/><path transform="matrix(.13333 0 0 -.13333 0 2666.7)" d="m17165 11968s-263.9-127.5-292.8-409.3c0 0 226.9 49.9 292.8 409.3" fill="#a0d694"/><path transform="matrix(.13333 0 0 -.13333 0 2666.7)" d="m17165 11967s126.1-256.2 400.8-282.4c0 0-50.2 220.7-400.8 282.4" fill="#a0d694"/><path transform="matrix(.13333 0 0 -.13333 0 2666.7)" d="m16954 12430s-279.6-230.3-231.9-577.2c0 0 257.9 126.4 231.9 577.2" fill="#a0d694"/><path transform="matrix(.13333 0 0 -.13333 0 2666.7)" d="m16955 12429s226.3-270.7 563.8-221.9c0 0-124.8 250.4-563.8 221.9" fill="#a0d694"/><path transform="matrix(.13333 0 0 -.13333 0 2666.7)" d="m16600 12802s-274.6-300.8-166.3-679.3c0 0 266.9 181.6 166.3 679.3" fill="#a0d694"/><path transform="matrix(.13333 0 0 -.13333 0 2666.7)" d="m16601 12801s294.9-265.4 662.9-157.4c0 0-178.8 258.8-662.9 157.4" fill="#a0d694"/><path transform="matrix(.13333 0 0 -.13333 0 2666.7)" d="m16122 12934s-140-382.4 103.6-691.6c0 0 178.2 269.3-103.6 691.6" fill="#a0d694"/><path transform="matrix(.13333 0 0 -.13333 0 2666.7)" d="m16123 12933s373.5-133.8 673 105.7c0 0-263.5 171.7-673-105.7" fill="#a0d694"/><path transform="matrix(.13333 0 0 -.13333 0 2666.7)" d="m15478 12677c-17.2-1.4-34.4-2.7-51.7-4-69.5 379.8 119.2 537.8 119.2 537.8 73.2-227.6-12.4-434.1-67.5-533.8" fill="#a0d694"/><path transform="matrix(.13333 0 0 -.13333 0 2666.7)" d="m17064 14097s-132-339-323.6-593.2c-89.2-118.3-191.2-218.1-298.9-257.1-339-122.5-430.4-157.3-443.4-182.3-7.7-14.6-29.8-195.9-46.8-342.4-26-2.9-52.2-5.7-78.8-8.4 27.9 217.8 97 604.6 256.8 887.4 40.7 72.4 87.4 137.8 140.9 191.9 360.8 365.1 793.8 304.1 793.8 304.1" fill="#82b378"/><path transform="matrix(.13333 0 0 -.13333 0 2666.7)" d="m13446 12615c-29.3 0.4-58.4 0.8-87.4 1.2-16 0.2-32 0.4-47.9 0.8-25.3 0.4-50.6 0.8-75.7 1.4-96.6 285.8-12.1 435.9-12.1 435.9 222.9-144 223.5-414.1 223.1-439.3" fill="#82b378"/><path transform="matrix(.13333 0 0 -.13333 0 2666.7)" d="m15150 12654c-1.9-0.1-3.9-0.2-5.8-0.3-25.3-1.5-50.6-3-76.1-4.4-88.5-5.1-178.6-9.7-270.1-13.8-15.7-0.7-31.4-1.3-47.2-2-34.3-1.5-68.8-2.8-103.6-4.1 29.8 130.3 140 370.4 543.6 505.8 0 0 56.1-214.3-40.8-481.2" fill="#82b378"/><path transform="matrix(.13333 0 0 -.13333 0 2666.7)" d="m14565 12834s-308.9 79.9-273.4 203.5c35.5 123.7 273.4-203.5 273.4-203.5s5.7 18.6 0 0" fill="#a0d694"/><path transform="matrix(.13333 0 0 -.13333 0 2666.7)" d="m14470 13116c95.4 59.1 95-281.8 95-281.8s-190.4 222.6-95 281.8" fill="#a0d694"/><path transform="matrix(.13333 0 0 -.13333 0 2666.7)" d="m14430 12622c-16.5-0.5-33.1-1-49.6-1.3-89.7-2.4-180.5-4.3-272.2-5.6-121.1-1.7-243.8-2.7-368-2.7-75.9 0-151.2 0.3-225.9 1.1-22.9 0.2-45.8 0.4-68.5 0.7-29.3 0.4-58.4 0.8-87.4 1.2-16 0.2-32 0.4-47.9 0.8-25.3 0.4-50.6 0.8-75.7 1.4-169.9 3.4-336.1 8.5-497.9 15.3 19.8 147.6 134.8 601.2 798.8 538.5 562.6-53.2 802.6-370.4 894.3-549.4" fill="#1e3d70"/><path transform="matrix(.13333 0 0 -.13333 0 2666.7)" d="m14280 16516c-0.3-0.8-1.3-2.9-2.8-6.6-1.9-4.3-4.6-10.7-8-19.1-3.2-8-7.3-17.9-12.1-29.6-39.4-97.6-126.1-321.5-232.2-649.4-102.1-315.2-222.4-726.5-335.9-1214v-0.1c-1.1-5-2.3-9.9-3.5-14.9v-0.4c-60.9-263-120-548.1-173.1-852.1-60.7-348.1-113.9-720.9-153.5-1113.9-16 0.2-32 0.4-47.9 0.8 39.4 392.4 92.4 764.8 153 1112.7 91 522.5 199.2 989.6 305.5 1385.8 7.2 26.8 14.4 53.1 21.6 79.1 68.3 250 135.4 469.8 196 655.4 100.6 308.6 182.9 522.3 222.8 621.9 9.1 22.6 16 39.3 20.4 49.9 2.2 5.4 3.8 9.2 4.7 11.4 0.5 1.1 0.8 1.8 1 2.1l6.3-2.8 10.5-4.5 18.7-8 4.8-2.1 3.7-1.6" fill="#a8d29f"/><path transform="matrix(.13333 0 0 -.13333 0 2666.7)" d="m14790 16764c-92.8-105.1-526.9-274-556.9-247.6-30 26.5 83.8 478.3 176.5 583.3 92.7 105.1 253 115.1 358 22.3 105.1-92.7 115.1-253 22.4-358" fill="#f99746"/><path transform="matrix(.13333 0 0 -.13333 0 2666.7)" d="m14124 17130c83.8-112.3 159.8-571.9 127.7-595.8-32-23.9-450.7 180.3-534.5 292.7-83.7 112.3-60.5 271.2 51.8 355 112.4 83.7 271.3 60.5 355-51.9" fill="#f99746"/><path transform="matrix(.13333 0 0 -.13333 0 2666.7)" d="m13625 16641c135.2 36.9 590.8-60.4 601.3-99s-332.7-353.6-467.9-390.5c-135.1-36.8-274.6 42.9-311.4 178.1-36.9 135.1 42.9 274.6 178 311.4" fill="#f99746"/><path transform="matrix(.13333 0 0 -.13333 0 2666.7)" d="m13933 16032c13.5 139.4 266 530.9 305.8 527.1s212.7-436.5 199.2-575.9c-13.4-139.5-137.4-241.6-276.9-228.1-139.4 13.5-241.5 137.4-228.1 276.9" fill="#f99746"/><path transform="matrix(.13333 0 0 -.13333 0 2666.7)" d="m14624 16062c-124 65.1-391.3 446.7-372.7 482.1s484.5 32.2 608.5-32.9c124.1-65.2 171.9-218.5 106.7-342.6-65.1-124-218.5-171.8-342.5-106.6" fill="#f99746"/><path transform="matrix(.13333 0 0 -.13333 0 2666.7)" d="m14334 16557c-7.2 45.5-50 76.6-95.6 69.3-45.6-7.2-76.6-50-69.4-95.6 7.3-45.6 50.1-76.6 95.7-69.4 45.5 7.3 76.6 50.1 69.3 95.7" fill="#2a4e96"/><path transform="matrix(.13333 0 0 -.13333 0 2666.7)" d="m13453 15844c141.2-117.7 378.9-680.8 345.3-721.1s-630.3 92.2-771.5 209.8c-141.2 117.7-160.2 327.6-42.5 468.8s327.5 160.2 468.7 42.5" fill="#a8d29f"/><path transform="matrix(.13333 0 0 -.13333 0 2666.7)" d="m14126 15112c-143.1-69.8-459.6-494.4-439.7-535.3 19.9-40.8 549.3-52.9 692.5 16.9 143.1 69.8 202.6 242.4 132.8 385.5-69.8 143.2-242.4 202.7-385.6 132.9" fill="#a8d29f"/><path transform="matrix(.13333 0 0 -.13333 0 2666.7)" d="m14110 13392s-187.5-123.2-673.4-98.4c-485.7 24.6-618.3 285.5-653.7 250.2-8.4-8.5-27.6-72.8-52-165.6-30-114.6-67.7-272.5-102.8-422.8-18.4-78.5-35.9-155-51-222-23.8 5.9-47.4 14-70.3 24.1 7.9 41.4 16.8 85.7 26.5 132.1 37.9 184.3 86.2 397.2 135.6 557.3 37.2 120.6 74.9 211.3 109.5 237.4 134.9 102.6 454.7 295.2 768.9 185.5 314.4-109.5 562.7-477.8 562.7-477.8" fill="#a8d29f"/><path transform="matrix(.13333 0 0 -.13333 0 2666.7)" d="m12910 14272c-352.4-343.4-712.7-368.1-724.5-430.6-9.3-49.1-17.1-99.8-23.2-151.3-0.6-4-1-8-1.4-12.1-17-140.2-24-287.4-24.9-429-1.7-222.8 11.4-432.8 24.5-583.7-28 1.9-55.8 4-83.4 6-5.5 183.5-9.4 445.2 0.7 717.2 3.3 94.7 8.6 190.6 16 284.8 0.3 5 0.6 10 1 15 30.9 383.8 98.2 737.9 236.4 867.6 354.5 332.6 1037.4 469.6 1061.6 474.4 24.1 4.9-130.5-415.1-482.8-758.3" fill="#a8d29f"/><path transform="matrix(.13333 0 0 -.13333 0 2666.7)" d="m13078 12849s-2.6-1.8-7.6-5.1c-36.5-23.7-202-123.2-395.9-123.4-32.7 0-65.4 4.4-97.8 12.8-23.7 5.8-47.2 13.9-70.2 24.1-32.2 13.6-63.2 31-92.9 50.8-115.2 78.3-207.2 198.2-238.7 318.2-10.4 39.7-23.9 81.5-39 123.1-17.8 48.4-37.9 96.2-58.2 139.5-51.4 109.7-104 190.3-122.8 176.2-32.8-24.6-63.7-137.6-66.5-310.9-1.7-98.9 33-363.3 63.1-572.7-26.2 2.2-52.1 4.3-77.9 6.6-44.5 346.2-81.1 873.4 92.3 963.4 10.7 5.7 21.8 10.6 33.2 14.8 29.9 11.6 62 18.9 95.6 22.4 21.7 2.1 44.4 2.8 67.5 1.8 22.4-1 45.3-3.3 68.4-7.2 149.9-24.9 311.2-110.1 438-236.6 21.9-21.8 42.6-44.7 62-68.7 49.3-60.7 90.8-128.6 120.5-202.2 0 0 7.7-16.4 21.1-42 37.1-71.1 117.6-214 194.5-276.3 3.7-3 7.6-5.9 11.3-8.6" fill="#82b378"/><path transform="matrix(.13333 0 0 -.13333 0 2666.7)" d="m14480 12624c-33.1-1-66.4-1.9-99.7-2.7-23.9 27.7-76.7 83-132.4 102.4-47.6 16.6-97.4-2.5-139.8-108-24.9-61.8-47.4-153.6-65.3-285.3-48.6-356.1-464.1-318.3-464.1-318.3-96.2 230.9-110.9 438.3-64.5 602 57.7 203.5 209.8 339.7 417.1 370.2 341.3 49.9 519.9-298.6 548.7-360.3" fill="#a8d29f"/><path transform="matrix(.13333 0 0 -.13333 0 2666.7)" d="m11496 13443c12.2 55 66.8 89.7 121.8 77.4 55.1-12.2 89.7-66.8 77.5-121.8-12.3-55.1-151.1-208.4-151.1-208.4s-60.5 197.8-48.2 252.8" fill="#a8d29f"/><path transform="matrix(.13333 0 0 -.13333 0 2666.7)" d="m16568 3198c99.7-40.4 455.7-7.7 467.2 20.7s-221.3 299.8-321 340.1c-99.6 40.4-213.1-7.6-253.5-107.3-40.4-99.6 7.6-213.1 107.3-253.5" fill="#a8d29f"/><path transform="matrix(.13333 0 0 -.13333 0 2666.7)" d="m17466 3028c-56-91.8-81.2-448.4-55-464.4s331.5 170 387.5 261.8c55.9 91.9 26.9 211.6-65 267.6-91.8 55.9-211.6 26.8-267.5-65" fill="#a8d29f"/><path transform="matrix(.13333 0 0 -.13333 0 2666.7)" d="m16986 2330.1c102.5-32.7 455 27 464.3 56.2s-243.5 282-345.9 314.7-212-23.8-244.7-126.3c-32.7-102.4 23.9-211.9 126.3-244.6" fill="#a8d29f"/><path transform="matrix(.13333 0 0 -.13333 0 2666.7)" d="m17504 1984.9c-0.4 8.1-39.8 815.3-481.7 1232.1l9.4 9.9c446-420.6 485.6-1233.2 486-1241.4l-13.7-0.6" fill="#a8d29f"/><path transform="matrix(.13333 0 0 -.13333 0 2666.7)" d="m18980 3180.6c-62-41.2-308.3-68.3-320-50.6-11.8 17.7 108.8 234.1 170.8 275.4 62.1 41.2 145.8 24.2 187-37.8 41.2-62.1 24.3-145.8-37.8-187" fill="#a8d29f"/><path transform="matrix(.13333 0 0 -.13333 0 2666.7)" d="m18394 2940.9c50.7-54.6 117.2-293.3 101.6-307.7-15.6-14.5-248.7 69.5-299.4 124.1s-47.5 140 7.1 190.7 140 47.5 190.7-7.1" fill="#a8d29f"/><path transform="matrix(.13333 0 0 -.13333 0 2666.7)" d="m18816 2533.4c-65-36.3-312.6-44.6-323-26.1-10.3 18.6 126.3 225.2 191.4 261.6 65 36.4 147.2 13.1 183.5-51.9 36.4-65 13.2-147.2-51.9-183.6" fill="#a8d29f"/><path transform="matrix(.13333 0 0 -.13333 0 2666.7)" d="m18512 2227.3c-0.8 5.6-85.8 559.1 156.6 903.2l-7.8 5.4c-244.6-347.2-159-904.5-158.1-910.1l9.3 1.5" fill="#a8d29f"/><path transform="matrix(.13333 0 0 -.13333 0 2666.7)" d="m18074 2032-28.2 4.5c-110.7 1432.9-548.3 2461.2-554.4 2475.1l25.6 11.1c6.1-14.2 446.9-1049.2 557-2490.7" fill="#a8d29f"/><path transform="matrix(.13333 0 0 -.13333 0 2666.7)" d="m17194 4655.8c54-61.1 306.7-159.4 324.1-144 17.5 15.4-48.8 278.3-102.7 339.4-54 61.2-147.3 67-208.4 13-61.1-53.9-66.9-147.2-13-208.4" fill="#fff"/><path transform="matrix(.13333 0 0 -.13333 0 2666.7)" d="m17582 4868.9c-48.7-65.3-92.9-332.8-74.3-346.7 18.7-13.9 262.4 104.9 311.1 170.3s35.2 157.9-30.2 206.6c-65.3 48.7-157.8 35.2-206.6-30.2" fill="#fff"/><path transform="matrix(.13333 0 0 -.13333 0 2666.7)" d="m17872 4584.5c-78.7 21.5-343.8-35.2-350-57.6-6.1-22.5 193.7-205.8 272.3-227.3 78.7-21.4 159.9 25 181.3 103.7 21.5 78.6-24.9 159.8-103.6 181.2" fill="#fff"/><path transform="matrix(.13333 0 0 -.13333 0 2666.7)" d="m17693 4229.9c-7.8 81.2-154.8 309-177.9 306.8-23.2-2.3-123.8-254.1-116-335.2 7.9-81.2 80-140.6 161.2-132.8 81.2 7.9 140.6 80 132.7 161.2" fill="#fff"/><path transform="matrix(.13333 0 0 -.13333 0 2666.7)" d="m17291 4247.3c72.1 37.9 227.7 260 216.8 280.7-10.8 20.6-281.9 18.7-354.1-19.2s-100-127.2-62.1-199.4 127.2-100 199.4-62.1" fill="#fff"/><path transform="matrix(.13333 0 0 -.13333 0 2666.7)" d="m17460 4535.6c4.2 26.5 29.2 44.6 55.7 40.4 26.5-4.3 44.6-29.2 40.4-55.7-4.3-26.5-29.2-44.6-55.7-40.4-26.5 4.3-44.6 29.2-40.4 55.7" fill="#f77d48"/><path transform="matrix(.13333 0 0 -.13333 0 2666.7)" d="m18066 3497c-80.2-98.6-166.8-512.5-138.6-535.4 28.1-22.9 415.7 146.2 495.9 244.9 80.2 98.6 65.3 243.7-33.4 323.9-98.6 80.2-243.6 65.3-323.9-33.4" fill="#a8d29f"/><path transform="matrix(.13333 0 0 -.13333 0 2666.7)" d="m15811 3223.9c5.7-8.5 262.2-442.2 503.2-1139.5-10 2.9-18.5 4.3-28.4 7.1-238.1 686-488.9 1111.2-494.6 1119.7l19.8 12.7" fill="#a8d29f"/><path transform="matrix(.13333 0 0 -.13333 0 2666.7)" d="m15515 3303c54-47 285.3-103.5 298.7-88 13.4 15.4-74.5 236.6-128.5 283.6s-135.9 41.4-182.9-12.6c-47-54.1-41.3-135.9 12.7-183" fill="#fff"/><path transform="matrix(.13333 0 0 -.13333 0 2666.7)" d="m15828 3533.2c-34.9-62.6-42.6-300.5-24.7-310.5 17.8-10 216.3 121.6 251.2 184.1 34.8 62.5 12.4 141.5-50.1 176.4s-141.5 12.5-176.4-50" fill="#fff"/><path transform="matrix(.13333 0 0 -.13333 0 2666.7)" d="m16114 3319c-70.9 9.6-295.3-70.2-298-90.5-2.7-20.2 192.3-156.8 263.2-166.4 71-9.6 136.3 40.1 145.9 111.1 9.6 70.9-40.1 136.2-111.1 145.8" fill="#fff"/><path transform="matrix(.13333 0 0 -.13333 0 2666.7)" d="m15999 2989.7c-16.2 69.7-170.4 251.1-190.3 246.5s-78.5-235.4-62.3-305.1c16.2-69.8 85.8-113.2 155.6-97 69.7 16.2 113.2 85.8 97 155.6" fill="#fff"/><path transform="matrix(.13333 0 0 -.13333 0 2666.7)" d="m15646 2958.5c58.4 41.4 168.2 252.6 156.4 269.3-11.7 16.7-247.6-16.2-306-57.5-58.5-41.3-72.4-122.2-31.1-180.7 41.3-58.4 122.2-72.4 180.7-31.1" fill="#fff"/><path transform="matrix(.13333 0 0 -.13333 0 2666.7)" d="m15760 3228.9c0.6 23.6 20.2 42.2 43.8 41.6s42.2-20.2 41.5-43.8c-0.6-23.6-20.2-42.2-43.8-41.6-23.6 0.7-42.2 20.3-41.5 43.8" fill="#f77d48"/><path transform="matrix(.13333 0 0 -.13333 0 2666.7)" d="m16240 2756.6c-45-73.2-66.4-358.2-45.5-371.1 20.9-12.8 265.6 134.9 310.6 208.1s22.2 169-51.1 214c-73.2 45-169 22.2-214-51" fill="#a8d29f"/><path transform="matrix(.13333 0 0 -.13333 0 2666.7)" d="m19614 2009.8 30.8 4.9c121 1566.1 599.3 2690 606 2705.3l-28 12.1c-6.7-15.5-488.4-1146.7-608.8-2722.3" fill="#a8d29f"/><path transform="matrix(.13333 0 0 -.13333 0 2666.7)" d="m20575 4877.6c-58.9-66.8-335.1-174.3-354.2-157.5-19.1 16.9 53.3 304.2 112.3 371.1 58.9 66.8 160.9 73.1 227.7 14.2 66.8-59 73.2-161 14.2-227.8" fill="#fff"/><path transform="matrix(.13333 0 0 -.13333 0 2666.7)" d="m20152 5110.5c53.3-71.4 101.6-363.8 81.2-379s-286.7 114.7-340 186.2c-53.2 71.4-38.4 172.5 33 225.8 71.5 53.2 172.6 38.5 225.8-33" fill="#fff"/><path transform="matrix(.13333 0 0 -.13333 0 2666.7)" d="m19834 4799.6c86 23.5 375.8-38.4 382.5-63 6.7-24.5-211.6-224.9-297.6-248.3s-174.7 27.3-198.1 113.2c-23.4 86 27.3 174.7 113.2 198.1" fill="#fff"/><path transform="matrix(.13333 0 0 -.13333 0 2666.7)" d="m20030 4412.1c8.6 88.7 169.2 337.7 194.6 335.2 25.3-2.4 135.2-277.6 126.7-366.3-8.6-88.7-87.5-153.7-176.2-145.1s-153.6 87.4-145.1 176.2" fill="#fff"/><path transform="matrix(.13333 0 0 -.13333 0 2666.7)" d="m20470 4431.1c-78.9 41.4-248.9 284.2-237 306.7 11.8 22.5 308.1 20.5 387-20.9 78.9-41.5 109.3-139 67.9-217.9s-139-109.3-217.9-67.9" fill="#fff"/><path transform="matrix(.13333 0 0 -.13333 0 2666.7)" d="m20285 4746.2c-4.7 29-31.9 48.7-60.9 44.1s-48.7-31.9-44.1-60.8c4.6-29 31.9-48.8 60.8-44.2 29 4.7 48.8 31.9 44.2 60.9" fill="#f77d48"/><path transform="matrix(.13333 0 0 -.13333 0 2666.7)" d="m19542 3191.7c87.7-107.8 182.3-560.2 151.5-585.2-30.7-25.1-454.3 159.8-542 267.7-87.7 107.8-71.4 266.3 36.5 354 107.8 87.7 266.3 71.3 354-36.5" fill="#a8d29f"/><path transform="matrix(.13333 0 0 -.13333 0 2666.7)" d="m20053 3089.1c-123.6-63.6-391.8-439.9-373.7-475.2 18.2-35.3 480.4-35.9 603.9 27.7 123.6 63.6 172.3 215.3 108.7 338.9s-215.3 172.2-338.9 108.6" fill="#a8d29f"/><path transform="matrix(.13333 0 0 -.13333 0 2666.7)" d="m15470 1786.8s141.5 372.1 655.5 395.5 867.9-280.4 1292.5-140.2c424.7 140.2 1127.5 456.7 1792.4 245.9s777-501.2 777-501.2h-4517.4" fill="#a8d29f"/><path transform="matrix(.13333 0 0 -.13333 0 2666.7)" d="m21658 7454c-431.1 109.7-905 778.5-905 778.5l121.4 105.3c125.6-148.1 648.2-403.3 648.2-403.3-2.8 135.6 0.7 259.2 9.3 371.8 58 765 346.3 1019.9 425.1 1075.8 12.7 9.1 20 12.9 20 12.9s0.3-5.6 0.7-16.1c1.1-22.7 3.2-68.5 5.4-131.4 16-468.2 35.1-1885.2-325.1-1793.5" fill="#ffb27d"/><path transform="matrix(.13333 0 0 -.13333 0 2666.7)" d="m22004 8498.3c-1-41.9-2.4-84-4.2-126.1-13.9-340.4-50.9-678.7-134.4-876.7-20.6-48.6-43.8-88.8-70.4-118.4-38.5-43.2-83.7-64.1-136.8-56.3-291.2 42.5-367.1 314.3-382.5 516.4-9.7 125.8 4.2 224.6 4.2 224.6s143.4 0.6 166.5 22c47.7 44 68.6 255.6 81.4 490.1 16.8 307.4 21.2 652.9 50.6 712.4 83.9 170 408 170 408 170s30.3-463 17.6-958" fill="#f99746"/><path transform="matrix(.13333 0 0 -.13333 0 2666.7)" d="m22347 10235s-240.1-141.4-92.8-415.5c0 0-210.2 38.5-255.6 101.3 0 0 5.3-26.2 13.1-39.4 0 0-193.2 43.8-256.5 124.5-63.2 80.6 246.9 1046.6 749.2 796.4 0 0 459.3-85.2 279.4-595.2-179.9-509.9-9.9-555-9.9-555s-53.4-10.8-76.2-4.7c0 0-30 21.5-31.7 41.7 0 0-1.1-30.7 5-42.2 0 0-188.1 31.2-261.4 124.8-73.3 93.5-117.2 362.7-62.6 463.3" fill="#233862"/><path transform="matrix(.13333 0 0 -.13333 0 2666.7)" d="m22001 9413.8c-0.3-0.1-0.5-0.2-0.8-0.3-1.5 0.2-1.2 0.3 0.8 0.3" fill="#ffb27d"/><path transform="matrix(.13333 0 0 -.13333 0 2666.7)" d="m22584 9581.8c7-63.2 15.4-119.9 19.2-147 8.4-60.5-566.2-21.1-602.8-21 25.5 11.1 103.5 258.3 128.2 352.6 29.9 114.4 53.4 238 53.4 238l405.7-25.7 24.1-1.4c-14.9-55.4-25.6-107.6-33-156.1-0.9-6.5-1.9-13.1-2.7-19.5-7.4-53.8-0.9-141.8 7.9-219.9" fill="#ffb27d"/><path transform="matrix(.13333 0 0 -.13333 0 2666.7)" d="m22126 10045s-65.8 208.6-52.4 368.6c9.4 114.2 172 503.7 562.9 338 0 0 114.9-42.9 206-147.2 72.4-82.9 165.7-245.2-70.1-560.3l-68.5-109.4-577.9 110.3" fill="#233862"/><path transform="matrix(.13333 0 0 -.13333 0 2666.7)" d="m22052 8465.5-21.5-688.7s-76.1-130.4-165.5-281.3c-22.9-38.8-46.7-78.9-70.4-118.4-38.5-43.2-83.7-64.1-136.8-56.3-291.2 42.5-367.1 314.3-382.5 516.4-9.7 125.8 4.2 224.6 4.2 224.6s143.4 0.6 166.5 22c47.7 44 68.6 255.6 81.4 490.1l198.8 112.3 277.4-187.9 48.4-32.8" fill="#ed7d2b"/><path transform="matrix(.13333 0 0 -.13333 0 2666.7)" d="m22584 9581.8c-283.9 83.1-404.3 411-404.3 411 120.1-3.6 276.4-86.9 399.1-171.6-0.9-6.5-1.9-13.1-2.7-19.5-7.4-53.8-0.9-141.8 7.9-219.9" fill="#ed975d"/><path transform="matrix(.13333 0 0 -.13333 0 2666.7)" d="m22604 9697s-512.7 126.7-428.9 444.8c83.9 318.1 74.1 548.7 405.1 481.2 330.9-67.5 362.2-205.5 360.1-318.5-2.2-113-200.7-632.3-336.3-607.5" fill="#ffb27d"/><path transform="matrix(.13333 0 0 -.13333 0 2666.7)" d="m22972 10485c-152.6 241.5-334.6 266.6-335.4 266.6-130.3 87.3-302.7-127.1-302.7-127.1-94.5-219.1-293.7-306.3-293.7-306.3s77.9-82.1 307-83.7c70-0.5 140.8 30.6 205.5 73.9-125.4-122.5-271.3-196.1-271.3-196.1 274.9 48.4 467.3 351.3 501.4 408.5 37-59.5 73.8-128.7 75.7-171.6 4-87.7-28.7-257.5 21.4-264.7 0 0 194.9 237.9 92.1 400.5" fill="#233862"/><path transform="matrix(.13333 0 0 -.13333 0 2666.7)" d="m22524 9900.9s6.4-48.4 37.3-59.9c30.9-11.4 112.9-32.2 121.2-27.1 8.3 5.2 39 42.9 39 42.9s-129.2 49.6-197.5 44.1" fill="#fff"/><path transform="matrix(.13333 0 0 -.13333 0 2666.7)" d="m22333 5035c-6.6-27.2-13.1-54.1-19.5-80.8-38.6-160.6-74.6-309.6-97.3-434.2-29.4-162.3-36.4-282.9 2.3-333.7 159.2-208.8 0-1865.6 0-1865.6l-181.3-186.7s-315 1635.8-400.5 1892.1c-38.8 116.5-95.4 614.2-145.4 1122.2-2.6 25.5-5 50.9-7.5 76.3-8.6 88.9-17 177.4-25 263.8-44.8 480.7-78.4 892.3-78.4 892.3s334.2 234.9 637.8 261.1c178.9 15.6 347.1-41.3 430.2-261.1 121-319.8-1.6-871.9-115.4-1345.7" fill="#ffb27d"/><path transform="matrix(.13333 0 0 -.13333 0 2666.7)" d="m22282 4925c-233.9 255.1-388 620.2-673.4 1131.5-24.3 260.1 180.8 507.2 409.6 585.3 178.9 15.6 347.1-41.3 430.2-261.1 121-319.8-52.6-981.9-166.4-1455.7" fill="#ed975d"/><path transform="matrix(.13333 0 0 -.13333 0 2666.7)" d="m23238 8194.5 1220.3-315.2v-142.5s-1214.3 14.2-1292.7 149.5c-78.3 135.3 72.4 308.2 72.4 308.2" fill="#ffb27d"/><path transform="matrix(.13333 0 0 -.13333 0 2666.7)" d="m24458 3498.1-57-235.5s-1650.6 852.6-1864.1 1016.3c-85.8 65.8-199.1 423-304.1 827.2-156.3 602.3-294.1 1308.7-294.1 1308.7s231.4 890 850.9 345.3c370.6-325.9 313-954 272.4-1442.5-27-327.7-46.5-592.7 76.5-661.4 239.7-133.8 943.3-750.2 1166-1174.3l153.5 16.2" fill="#ffb27d"/><path transform="matrix(.13333 0 0 -.13333 0 2666.7)" d="m23837 8194.5c79-112.1 35.5-329.5-130.1-504.6-102.8-108.6-242-172.9-468.7-139.5-98.8 14.5-272.9 125-363.9 307.6-13.5 27.3-48 107.4-48 107.4s-125.7-125.8-130.4-149.6c-2.1-10.7-13-105.8-14.7-118.8-1.9-15.7 9.3-73.4 9.3-73.4s-600.4-262.6-1096.8 36.4c0 0-117.4 762.4-39.9 1414.6 14.9 125 333.9 295.5 432.5 381.8 22.2 19.4 44.7 77.9 38.6 115.5-5 31.8 31.6 85.5 62.3 75.7 59.3-19 227.2-102 345.3-70.3 58.8 15.6 133.4 83.6 190.5 68 69.7-19-3.9-186.8 35.6-188.9 54.4-2.7 298.9-6.5 373.1-109 60.8-83.8 93.1-240.3 199-536.4 0 0 0.1-0.2 0.2-0.7 198.7-555.5 490.3-451.3 606.1-615.8" fill="#f99746"/><path transform="matrix(.13333 0 0 -.13333 0 2666.7)" d="m22826 7965.4s-60.5 141.1-104.6 377c-12.4 66.5-524.2-444.8-396-652.5 128.2-207.6 500.6 275.5 500.6 275.5" fill="#ed7d2b"/><path transform="matrix(.13333 0 0 -.13333 0 2666.7)" d="m23564 5835.2s-160.8-46-402.3-96.9c-499.1-105.3-1343.1-231.5-1826.5-16 0 0 30.9 711 114.9 1248.4 67.2 430 129.5 712.2 129.5 712.2s449.4-112.6 905.7-25.2c4.4 0.8 8.6 1.6 13 2.5 59.8 11.9 119.6 27.4 178.4 47 0 0 344.5-493.8 522.2-837.4 123-237.7 365.1-1034.6 365.1-1034.6" fill="#23569e"/><path transform="matrix(.13333 0 0 -.13333 0 2666.7)" d="m23564 5835.2s-160.8-46-402.3-96.9c-51.9-5.6-105.9-10.9-161.8-16-810 1034.3-511.3 1932.8-511.3 1932.8 3.2 1.7 6.5 3.5 9.7 5.1 59.8 11.9 119.6 27.4 178.4 47 0 0 344.5-493.8 522.2-837.4 123-237.7 365.1-1034.6 365.1-1034.6" fill="#163560"/><path transform="matrix(.13333 0 0 -.13333 0 2666.7)" d="m24458 7879.3s223.8 110.3 312.8 120.9c89 10.7 238.6 14.3 238.6 0 0-14.2-160.2-113.7-203-120.9-42.7-7.2-124.6-67.7-99.6-74.9 24.9-7.1 156.6 23.2 158.4 0 1.8-23.1-80.1-37.3-94.4-55.1-14.2-17.8-64-39.2-144.1-28.5s-168.7 16-168.7 16v142.5" fill="#ffb27d"/><path transform="matrix(.13333 0 0 -.13333 0 2666.7)" d="m24810 3386.7c-4.5 8.4-12 14.8-20.9 18.1-3.2 1.2-5.8 2.2-6.1 2.3-7.4 1.8-41.4 13-63.9 67-14.8 35.6-19.3 64.7-32.9 99.9l-55.7 96.2c-58.3 76.8-78.8 58.8-78.8 58.8s-15.2-19.5-37.7-45.3c-37.2-42.5-94.2-101.9-134.6-117.1-28.7-10.7-46.6-28.6-57.6-45.1-14.1-20.8-17.2-39.6-17.2-39.6s119.7-20.8 109.2-79.8c-20.3-114.2-15.5-134.9-13.4-138.7l0.7-0.7s204.1-106.9 269.4-127.9c116.2-37.2 176.8-116.1 214.5-152.2 15.2-14.6 36.3-21.3 57.1-18 17.8 2.8 38.7 7.3 54.8 14.3 15.1 6.6 21.2 24.9 13.3 39.4l-200.2 368.4" fill="#2b478b"/><path transform="matrix(.13333 0 0 -.13333 0 2666.7)" d="m22400 2051-97.8-53c-35.5-12.5-64.8-16.1-100.8-29.9-54.6-21-93.1-62.1-94.9-69.5-27.6-112.1-67.9-108.7-67.9-108.7h-391.6c-18.6 9.3 12.8 88.5 27.9 103.4 37.1 36.6 148.2 18.1 188.8 133.2 22.9 64.6 135.6 265.6 135.6 265.6l0.8 0.7c3.8 1.9 24.6 6.1 138.2-17.5 58.6-12.1 82.9 106.9 82.9 106.9s18.7-3.7 39.1-18.3c16.2-11.5 33.5-30 43.4-59 14.1-40.7 71.7-99.5 113.1-137.9 25.2-23.2 44.2-39 44.2-39s17.4-21-61-77" fill="#2b478b"/><path transform="matrix(.13333 0 0 -.13333 0 2666.7)" d="m20875 8337.8s18.1 124-13.9 205.7c-33.8 86.3-41.3 179.9-68.4 142.7-27-37.2-4.2-142.2-27.9-138.8-10.4 1.5-42.4 19.6-55 70.1-16 64.1 22.9 148.3-30.5 140.1-50.9-7.9-119.2-244.5-85.3-308.7 33.8-64.3 159.6-216.4 159.6-216.4l121.4 105.3" fill="#ffb27d"/><path transform="matrix(.13333 0 0 -.13333 0 2666.7)" d="m22057 7550.4c-332.9 0-470.1 114.5-480.3 122.3l-21.5 156.8c3.2-2.4 449.8-270.6 1141.1-13.7l-14.7-118.8c-265.8-98.7-451.7-146.6-624.6-146.6" fill="#ea7147"/><path transform="matrix(.13333 0 0 -.13333 0 2666.7)" d="m5353 1754.4c2.31-0.6 4.91-0.9 7.37-0.9 22.82-0.1 45.5 21.5 52.72 51.8l252.66 1066.7 22.39 94.7 378.77 1599.2 22.39 94.7 317.23 1339.6 22.39 94.8 316.5 1336.1 22.4 94.8 405.78 1713.7 22.39 94.6 334.85 1413.7 22.39 94.5 166.27 702.2c7.95 33.5-6.06 65.3-31.35 70.7-25.13 5.6-52.14-17.2-60.09-50.9l-171.04-722-22.39-94.5-334.7-1413.7-22.4-94.6-405.92-1713.7-22.39-94.8-316.37-1336.1-22.53-94.8-317.23-1339.6-22.39-94.7-378.77-1599.2-22.39-94.7-247.89-1046.9c-8.09-33.6 5.92-65.2 31.35-70.7" fill="#2b478b"/><path transform="matrix(.13333 0 0 -.13333 0 2666.7)" d="m3088.2 1754.4c2.45-0.6 4.92-0.9 7.37-0.9 22.97-0.1 45.65 21.3 52.73 51.8l250.05 1057.2 22.54 94.8 378.62 1601 22.54 94.8 317.22 1341.1 22.4 94.8 316.5 1337.6 22.39 94.9 405.93 1715.6 22.39 94.7 334.86 1415.2 22.38 94.6 168.73 713.5c7.94 33.6-6.07 65.3-31.35 70.8-25.13 5.7-52.15-17.3-60.09-51l-173.49-733.3-22.4-94.6-334.85-1415.2-22.39-94.7-405.78-1715.6-22.54-94.9-316.36-1337.6-22.39-94.8-317.37-1341.1-22.39-94.8-378.77-1601-22.39-94.8-245.44-1037.3c-7.94-33.7 6.07-65.3 31.35-70.8" fill="#2b478b"/><path transform="matrix(.13333 0 0 -.13333 0 2666.7)" d="m5297.7 11178h2302.4l21.81 95.1h-2302.4l-21.81-95.1" fill="#2b478b"/><path transform="matrix(.13333 0 0 -.13333 0 2666.7)" d="m4889.6 9469.4h2284.8l21.65 95h-2284.8l-21.65-95" fill="#2b478b"/><path transform="matrix(.13333 0 0 -.13333 0 2666.7)" d="m4382 7410.2h2341.3l22.18 95.2h-2341.1l-22.33-95.2" fill="#2b478b"/><path transform="matrix(.13333 0 0 -.13333 0 2666.7)" d="m4043.2 5972.1h2341.2l22.18 95.2h-2341.2l-22.18-95.2" fill="#2b478b"/><path transform="matrix(.13333 0 0 -.13333 0 2666.7)" d="m3703.4 4530.5h2341.3l22.18 95.2h-2341.3l-22.18-95.2" fill="#2b478b"/><path transform="matrix(.13333 0 0 -.13333 0 2666.7)" d="m3302.3 2828.1h2341.3l22.19 95.2h-2341.3l-22.18-95.2" fill="#2b478b"/><path transform="matrix(.13333 0 0 -.13333 0 2666.7)" d="m8797.6 14625s-98.48-54-132.21 0c-33.73 53.9 66.1 36.4 66.1 36.4l66.11-36.4" fill="#ef9e67"/><path transform="matrix(.13333 0 0 -.13333 0 2666.7)" d="m8611.9 14377-27.03 6.6c-11.78 2.9-23.75 3.3-35.06 1.6-35.85-5.3-66.82-31.7-75.92-69l-195.31 47.9c-53.04 13-106.79-15.8-126.63-65.1l-28.81 7.1c39.17 107.6 102.33 198.2 178.63 263.1 80.28 68.5 174.98 108.7 271.36 110.4 30.54 0.7 61.36-2.6 91.94-10.1 217.88-53.4 348.38-301.9 312.46-572.9l-20.91 5.1c5.25 52.9-29.19 103.4-82.23 116.3l-195.2 48c12.05 49-18.24 98.9-67.29 111zm-528.1-944.8 99.88-24.4 479.23-117.5c189.97-46.6 383.37 70.7 429.94 260.6l28.06 114.6c25.82 22.9 52.15 47.4 79.18 73.6 439.95 428.6 1024.7 163.2 1024.7 163.2 3.5 14.2 3.5 27.1 1.5 38.2-6 33.8-30.1 52.9-30.1 52.9-366.65 181-844.13 137.8-1052.3 106.6-65.92-9.8-104.8-18.4-104.8-18.4l-13.35 3.2c41.66 297.9-104.83 572.9-348.83 632.7-52.06 12.8-104.86 14.9-156.45 7.3-97.73-14.1-191.65-62.4-270.69-136.2-75.03-70-136.55-162.9-175.02-271.6-54.56 6.6-107.05-28.5-120.41-83.2l-102.65-418.6c-41.53-169.2 63.02-341.5 232.17-383" fill="#c94c43"/><path transform="matrix(.13333 0 0 -.13333 0 2666.7)" d="m9120.9 13665c25.82 22.9 52.15 47.4 79.18 73.6 439.95 428.6 1024.7 163.2 1024.7 163.2 3.5 14.2 3.5 27.1 1.5 38.2-82 38-386.17 159.6-724.35 51.9-396.26-126.3-461.26-193.8-381.01-326.9" fill="#b23b38"/><path transform="matrix(.13333 0 0 -.13333 0 2666.7)" d="m8083.8 13432 99.88-24.4c-152.58 55.9-26.6 407.4 43.42 637.5 70.01 230.1 239.28 155.1 239.28 155.1 24.64 77.3 101.09 84.7 101.09 84.7-6.41 70 44.43 91.9 44.43 91.9l-27.03 6.6c-11.78 2.9-23.75 3.3-35.06 1.6-35.85-5.3-66.82-31.7-75.92-69l-195.31 47.9c-53.04 13-106.79-15.8-126.63-65.1l-28.81 7.1c39.17 107.6 102.33 198.2 178.63 263.1 80.28 68.5 174.98 108.7 271.36 110.4-16.56 9.7-34.98 24-52.73 45.2-97.73-14.1-191.65-62.4-270.69-136.2-75.03-70-136.55-162.9-175.02-271.6-54.56 6.6-107.05-28.5-120.41-83.2l-102.65-418.6c-41.53-169.2 63.02-341.5 232.17-383" fill="#b23b38"/><path transform="matrix(.13333 0 0 -.13333 0 2666.7)" d="m8511.6 14732c265.8 108.8 319.6-89.9 319.6-89.9-27.75 6.6-46.3 43.5-99.71-4.6-78.15-70.4-134.9-109.1-214.5-82.3l-95.13-0.9-10.73 142.3s50.38 27 100.47 35.4" fill="#ffb27d"/><path transform="matrix(.13333 0 0 -.13333 0 2666.7)" d="m6243.7 15904s203.94-242 463.65-140.8c0 0 55.88 135.1 56.66 234.8 0.09 12.2 0.25 24.1 0.43 35.4 1.39 112.2 5.17 175.1 5.17 175.1s-0.06 0-0.25 0.1c-11.82 4.9-397.02 163-396.7 149.9 6.61-303.4-128.96-454.5-128.96-454.5" fill="#ffb27d"/><path transform="matrix(.13333 0 0 -.13333 0 2666.7)" d="m6411.3 16286c37.15-68.9 164.6-203.6 353.11-252.8 1.39 112.2 5.17 175.1 5.17 175.1s-0.06 0-0.25 0.1c-10.67 2.8-369.08 97.9-358.03 77.6" fill="#ed975d"/><path transform="matrix(.13333 0 0 -.13333 0 2666.7)" d="m6850.3 16220s-433.2-101.9-492.47 168.9c-59.27 270.7-155.1 439.9 118.98 516.4s350.61-15.1 392.38-100.6c41.76-85.6 92.27-551.3-18.89-584.7" fill="#ffb27d"/><path transform="matrix(.13333 0 0 -.13333 0 2666.7)" d="m6372.6 16316c-5.91-3.8-99.12-32.4-275.65 319.2-27.71 55.2-46.59 174.7 18.01 280.2 64.58 105.5 239.29 176.6 431.89 197 172.89 18.4 266.49-47.2 308.62-105 70.82-97.1 122.32-276.5 6.42-244.6-38.69 10.6-158.55 31.2-229.53 10.5-68.9-20.2-92.66-129.5-97.8-164.1-5.13-34.6-13.03-63.3-99.13-32.4s-38.93-122-25.14-151.3c0 0 11.7-77.9-37.69-109.5" fill="#a9453d"/><path transform="matrix(.13333 0 0 -.13333 0 2666.7)" d="m5268.9 9563.6h-262.31c-54.98 0-116.09 55.1-131.38 155.9s-128.32 155.8-152.8 238.3c-24.47 82.5 100.87 198.7 100.87 198.7l20.96 26.9 21.8 28.1 207.78-48.9s5.12-49.5 8.33-112.5c2.22-45.5 3.44-98.1 0.84-144.2-6.11-110.1 30.82-228.5 128.56-249.9 97.81-21.4 57.35-92.4 57.35-92.4" fill="#202e51"/><path transform="matrix(.13333 0 0 -.13333 0 2666.7)" d="m7094.9 9563.6h-695.31c-6.65 1.3-11.7 2.7-14.76 4.3-46.42 23.2-31.89 200.9-26.31 255.9 1.07 10.1 1.84 16.1 1.84 16.1s244.49 195.5 278.14 45.8c1.07-4.7 2.29-9.2 3.59-13.8 42.45-140.1 232.18-203.8 341.77-221.5 83.74-13.6 105.46-62.4 111.04-86.8" fill="#202e51"/><path transform="matrix(.13333 0 0 -.13333 0 2666.7)" d="m6954.8 13573s-37.13-463.3-80.78-1020.1c-59.31-756.5-130.64-1685.7-137.7-1861.7-12.2-305.7-61.15-794.7-61.15-794.7s-116.07-116.1-348.4-67.2c0 0-207.02 698-266.15 1436.5-0.92 12.1-1.84 24.3-2.75 36.5-55.01 751.8-140.56 2334.9-140.56 2334.9l1037.5-64.2" fill="#f99746"/><path transform="matrix(.13333 0 0 -.13333 0 2666.7)" d="m6954.8 13573s-37.13-463.3-80.78-1020.1l-813.4-1287.1c-0.92 12.1-1.84 24.3-2.75 36.5-55.01 751.8-140.56 2334.9-140.56 2334.9l1037.5-64.2" fill="#ed7d2b"/><path transform="matrix(.13333 0 0 -.13333 0 2666.7)" d="m6785.2 13518s-669.28-1677.8-1109.4-2466.3c-440.08-788.4-577.6-1008.5-577.6-1008.5s-252.13 100.9-275.05 169.6c0 0 168.29 1522.2 463 1893.3 166.52 209.7 362.14 838.9 371.31 1058.9 9.17 220.1 59.6 655.6 59.6 655.6l1068.1-302.6" fill="#f99746"/><path transform="matrix(.13333 0 0 -.13333 0 2666.7)" d="m5246.8 13823-7.08-107.9s-1.41-44.1 0.89-81.5c3.99-64.8-2.75-146.2-129.11-208.5 0 0-85.36-34.4-88.82 32-3.46 66.5 29.25 51.9 22.32 145.5-6.94 93.5 8.05 171.5 69.94 201.3l50.78 58.6 81.08-39.5" fill="#ffb27d"/><path transform="matrix(.13333 0 0 -.13333 0 2666.7)" d="m5168.9 13744c74.08-23.8 85.94-18.4 85.94-18.4s360.57 656.4 397.09 716.5 765.54 736.1 765.54 736.1l-187.35 698.7s-829.17-1073.8-918.71-1227.8c-147.97-254.7-234.66-846-234.66-846s33.96-40.4 92.15-59.1" fill="#1e3d70"/><path transform="matrix(.13333 0 0 -.13333 0 2666.7)" d="m7083.9 14904c-2.61-143.4-10.94-304.7-22.18-468.5-0.69-9.7-1.38-19.4-2.07-29.2-7.19-101.4-14.99-203.1-23.94-302.3-3.59-39.8-7.41-79.1-11.39-117.7l-0.61-5.2c-0.31-14.5-2.07-30.2-3.67-44.5-36.56-371.5-74.87-665-81.98-669.5-8.49-5.7-18.05-8.5-28.53-7.3-97.43 12.3-388.11-9.8-626.1 41.9-200.82 42.4-373.73 122.7-556.97 231-24.31 14.4-79.76 52.5-75.25 80.9 4.44 31.3 12.62 76.5 23.02 133.3 36.1 197.6 98.43 537.5 119.69 935.4 4.13 74.1 10.17 147.3 17.97 219.2 20.41 187.5 53.15 365.5 97.04 523.6 81.6 293.9 257.96 520 408.39 608.1 19.66 11 68.97-57.5 166.09-119.8 89.71-57.5 171.12-39.1 262.97-31.1l93.86-123.7c97.89-113.8 202.13-265.3 230.57-480.7 2.15-15.9 3.98-32.8 5.51-50.7 7.88-87.8 9.79-198.8 7.58-323.2" fill="#2a4e96"/><path transform="matrix(.13333 0 0 -.13333 0 2666.7)" d="m7083.9 14904c-2.61-143.4-10.94-304.7-22.18-468.5-0.69-9.7-1.38-19.4-2.07-29.2-556.51 348.4-642.23 985.8-642.23 985.8 273.78-12 491.27-74.9 658.9-164.9 7.88-87.8 9.79-198.8 7.58-323.2" fill="#1e3d70"/><path transform="matrix(.13333 0 0 -.13333 0 2666.7)" d="m8490 14630c5.74 82.5-37 96.2-37 96.2s-839.08 152.1-910.41 174.5c-71.33 22.5-681.25 656.9-681.25 656.9s-233.79 263.7-425.21 205.5c-166.35-50.6-231.37-180.4-253.51-304-26.38-147.3 41.52-295.5 169.08-373.8 286.35-175.6 859.61-521.6 994.62-561.2 300.49-88.1 1107.8-7.1 1107.8-7.1s31.36 48.1 35.86 113" fill="#2a4e96"/><path transform="matrix(.13333 0 0 -.13333 0 2666.7)" d="m5239.3 13678s20.18-94.4 32.33-125.5c12.14-31-37.78-13.4-49.92 28.4s17.59 97.1 17.59 97.1" fill="#ffb27d"/><path transform="matrix(.13333 0 0 -.13333 0 2666.7)" d="m8108.7 1737.4-1453.4 5709.7 83.67 21.3 1453.4-5709.7-83.67-21.3" fill="#2b478b"/><path transform="matrix(.13333 0 0 -.13333 0 2666.7)" d="m27812 1715.3h-26299c-17.18 0-31.24 14-31.24 31.2v14c0 17.2 14.06 31.3 31.24 31.3h26299c17.2 0 31.2-14.1 31.2-31.3v-14c0-17.2-14-31.2-31.2-31.2" fill="#2e3552"/></g></svg>
